<svg width="26" height="26" viewBox="0 0 26 26" fill="none" xmlns="http://www.w3.org/2000/svg">
<rect width="26" height="26" rx="13" fill="#111111"/>
<path fill-rule="evenodd" clip-rule="evenodd" d="M15.1875 9.79744C15.1875 8.51799 14.0882 7.49319 12.7856 7.61957L12.784 7.61972C11.7215 7.71888 10.8125 8.79554 10.8125 9.90828V10.4741C10.8125 10.7157 10.6166 10.9116 10.375 10.9116C10.1334 10.9116 9.9375 10.7157 9.9375 10.4741V9.90828C9.9375 8.39627 11.1398 6.89484 12.7019 6.74858C14.5256 6.57211 16.0625 8.00883 16.0625 9.79744V10.6024C16.0625 10.8441 15.8666 11.0399 15.625 11.0399C15.3834 11.0399 15.1875 10.8441 15.1875 10.6024V9.79744Z" fill="white"/>
<path fill-rule="evenodd" clip-rule="evenodd" d="M7.96787 11.1435C8.48436 10.5294 9.36987 10.2292 10.6666 10.2292H15.3333C16.6301 10.2292 17.5156 10.5294 18.0321 11.1435C18.5444 11.7526 18.5924 12.5531 18.5098 13.299L18.5091 13.3052L18.0721 16.8015C18.0076 17.4001 17.8565 18.0558 17.3223 18.5439C16.7908 19.0295 15.9673 19.2709 14.75 19.2709H11.25C10.0326 19.2709 9.2092 19.0295 8.6777 18.5439C8.1434 18.0558 7.99237 17.4001 7.92788 16.8014L7.49008 13.299C7.40754 12.5531 7.45555 11.7526 7.96787 11.1435ZM8.35949 13.1998L8.79755 16.7043C8.8558 17.2479 8.97646 17.6317 9.26787 17.8979C9.56325 18.1678 10.1223 18.3959 11.25 18.3959H14.75C15.8776 18.3959 16.4367 18.1678 16.7321 17.8979C17.0235 17.6317 17.1442 17.2479 17.2025 16.7043L17.2033 16.6966L17.6405 13.1997C17.7149 12.5239 17.6372 12.0334 17.3625 11.7067C17.0914 11.3845 16.5274 11.1042 15.3333 11.1042H10.6666C9.47258 11.1042 8.9085 11.3845 8.63749 11.7067C8.36273 12.0334 8.28509 12.524 8.35949 13.1998Z" fill="white"/>
<path fill-rule="evenodd" clip-rule="evenodd" d="M14.4557 13.0001C14.4557 12.6779 14.7169 12.4167 15.039 12.4167H15.0443C15.3664 12.4167 15.6276 12.6779 15.6276 13.0001C15.6276 13.3222 15.3664 13.5834 15.0443 13.5834H15.039C14.7169 13.5834 14.4557 13.3222 14.4557 13.0001Z" fill="white"/>
<path fill-rule="evenodd" clip-rule="evenodd" d="M10.3718 13.0001C10.3718 12.6779 10.633 12.4167 10.9552 12.4167H10.9604C11.2826 12.4167 11.5437 12.6779 11.5437 13.0001C11.5437 13.3222 11.2826 13.5834 10.9604 13.5834H10.9552C10.633 13.5834 10.3718 13.3222 10.3718 13.0001Z" fill="white"/>
</svg>
